<?xml version="1.0" encoding="UTF-8"?>
<svg xmlns="http://www.w3.org/2000/svg" viewBox="0 0 59.43 11.25">
  <defs>
    <style>
      .cls-1 {
        fill: #0a3b95;
      }

      .cls-1, .cls-2, .cls-3 {
        stroke-width: 0px;
      }

      .cls-4 {
        fill: #231815;
        font-family: AdobeSongStd-Light-GBpc-EUC-H, 'Adobe Song Std';
        font-size: 6px;
        font-weight: 300;
      }

      .cls-2 {
        fill: #fff;
      }

      .cls-3 {
        fill: #d7262d;
      }
    </style>
  </defs>
  <g id="_图层_2" data-name="图层 2">
    <ellipse class="cls-2" cx="4.39" cy="5.62" rx="4.08" ry="5.37"/>
  </g>
  <g id="_图层_1" data-name="图层 1">
    <path class="cls-1" d="m8.32,4.19c.1.46.15.94.15,1.43,0,2.97-1.83,5.37-4.08,5.37-1.12,0-2.14-.6-2.88-1.57h2.85s.04,0,.06,0c.52,0,.94-.42.94-.94s-.42-.94-.94-.94c-.02,0-.04,0-.06,0h0s-3.78,0-3.78,0c-.18-.6-.27-1.25-.27-1.93C.31,2.66,2.14.25,4.39.25c1.31,0,2.47.81,3.22,2.07h-3.33c-.48.05-.85.45-.85.94s.37.89.85.93h0s.08,0,.08,0h3.96Z"/>
  </g>
  <g id="_图层_1_复制" data-name="图层 1_复制">
    <g>
      <path class="cls-3" d="m4.27,2.32h.08s-.05,0-.08,0h0Z"/>
      <path class="cls-3" d="m4.36,7.55h.06s-.04,0-.06,0h0Z"/>
      <path class="cls-3" d="m4.44.25h-.05.05Z"/>
      <path class="cls-3" d="m4.35,4.19h-.08s.05,0,.08,0Z"/>
      <path class="cls-3" d="m4.39.25s-.03,0-.04,0h0s.04,0,.04,0Z"/>
      <path class="cls-3" d="m4.44,2.32h0s-.05,0-.08,0h.08Z"/>
      <path class="cls-3" d="m4.44,4.19h0s-.08,0-.08,0c.03,0,.05,0,.08,0Z"/>
      <path class="cls-3" d="m8.32,4.19c.1.46.15.94.15,1.43,0,2.97-1.83,5.37-4.08,5.37-1.12,0-2.14-.6-2.88-1.57h2.85s.04,0,.06,0c.52,0,.94-.42.94-.94s-.42-.94-.94-.94h.02v-3.36h3.88Z"/>
    </g>
    <text class="cls-4" transform="translate(10.73 7.84)"><tspan x="0" y="0">Chern Blog Manager</tspan></text>
  </g>
</svg>