<?xml version="1.0" encoding="UTF-8"?>
<svg xmlns="http://www.w3.org/2000/svg" viewBox="0 0 18.57 24.13">
  <defs>
    <style>
      .cls-1 {
        fill: #0a3b95;
      }

      .cls-1, .cls-2, .cls-3 {
        stroke-width: 0px;
      }

      .cls-2 {
        fill: #fff;
      }

      .cls-3 {
        fill: #d7262d;
      }
    </style>
  </defs>
  <g id="_图层_2" data-name="图层 2">
    <ellipse class="cls-2" cx="9.35" cy="12.07" rx="8.97" ry="11.82"/>
  </g>
  <g id="_图层_1" data-name="图层 1">
    <path class="cls-1" d="m18,8.92c.21,1,.32,2.06.32,3.15,0,6.53-4.01,11.82-8.97,11.82-2.47,0-4.71-1.32-6.34-3.46h6.27s.09,0,.14,0c1.14,0,2.06-.92,2.06-2.06s-.92-2.06-2.06-2.06c-.05,0-.09,0-.14,0h0s-8.3,0-8.3,0c-.39-1.32-.6-2.74-.6-4.24C.39,5.54,4.4.25,9.35.25c2.87,0,5.43,1.78,7.07,4.55h-7.32c-1.05.1-1.88.98-1.88,2.06s.82,1.96,1.88,2.05h0s.18,0,.18,0h8.71Z"/>
  </g>
  <g id="_图层_1_复制" data-name="图层 1_复制">
    <g>
      <path class="cls-3" d="m9.46,8.91h0s-.18,0-.18,0c.06,0,.12,0,.18,0Z"/>
      <path class="cls-3" d="m9.46.25h-.11.11Z"/>
      <path class="cls-3" d="m9.28,16.3h.14s-.09,0-.14,0h0Z"/>
      <path class="cls-3" d="m9.27,8.92h-.17c.06,0,.11,0,.17,0Z"/>
      <path class="cls-3" d="m18,8.92c.21,1,.32,2.06.32,3.15,0,6.53-4.01,11.82-8.97,11.82-2.47,0-4.71-1.32-6.34-3.46h6.27s.09,0,.14,0c1.14,0,2.06-.92,2.06-2.06s-.92-2.06-2.06-2.06h.04v-7.38h8.54Z"/>
      <path class="cls-3" d="m9.1,4.8h.17c-.06,0-.11,0-.17,0h0Z"/>
      <path class="cls-3" d="m9.35.25s-.06,0-.09,0h0s.09,0,.09,0Z"/>
      <path class="cls-3" d="m9.46,4.8h0c-.06,0-.12,0-.18,0h.18Z"/>
    </g>
  </g>
</svg>